<svg width="123" height="38" viewBox="0 0 123 38" fill="none" xmlns="http://www.w3.org/2000/svg">
<path fill-rule="evenodd" clip-rule="evenodd" d="M37.6804 19.0001C37.6804 26.8157 33.0014 33.5283 26.3144 36.4464C25.6748 36.7255 25.0157 36.9704 24.3413 37.1772C22.6008 37.7127 20.7539 38 18.8402 38C17.7763 38 16.7338 37.9111 15.7181 37.7395C14.2524 37.4945 12.8441 37.077 11.5136 36.5105C8.45613 35.207 5.81065 33.1138 3.82936 30.4841C1.42585 27.2942 0 23.3156 0 19C0 8.50614 8.43459 0 18.8402 0C29.2448 0 37.6803 8.50614 37.6803 19L37.6804 19.0001Z" fill="#F9B004"/>
<path fill-rule="evenodd" clip-rule="evenodd" d="M7.5554 26.9624C7.63227 26.9387 7.68964 26.8663 7.68964 26.7805C7.69168 26.6626 7.72349 26.5148 7.75937 26.3514C7.78704 26.2253 7.81572 26.091 7.83625 25.9474C7.91822 25.8522 8.0443 25.7746 8.24419 25.7344C8.55678 25.7344 8.51063 25.8553 8.84891 25.7498C8.85911 25.784 8.87046 25.8149 8.88065 25.8439C8.84993 26.3121 9.39728 26.2398 9.09285 26.8538C9.02821 27.0513 8.89703 27.1175 8.76687 27.3148C8.44402 27.8037 8.62332 28.2895 7.59122 27.2486C7.52155 27.1081 7.52672 27.043 7.55533 26.9623L7.5554 26.9624Z" fill="#35393F"/>
<path fill-rule="evenodd" clip-rule="evenodd" d="M34.8607 13.178C25.8531 12.2642 22.1943 14.9986 18.6498 20.3623C18.1404 21.0538 17.6812 21.8084 17.0539 22.4834L14.5253 22.0007L13.9349 21.8301L14.0825 21.4208L14.0856 21.4094L15.0757 17.8195L15.0941 17.7502C15.1187 17.6458 15.0562 17.5414 14.9527 17.5156L14.3869 17.3739C14.4125 16.5945 14.5345 16.3527 14.7087 15.5939C14.7918 15.289 14.845 14.9852 14.8727 14.6802V14.676C14.9496 13.7964 14.8031 12.9168 14.513 12.0371C14.348 11.6215 13.9401 10.6922 13.7258 10.0866C13.442 8.8524 13.4276 7.63055 13.567 6.63817C14.022 6.40877 14.3716 5.85362 14.4054 5.29956C14.4638 4.32168 13.896 3.98679 13.0442 3.90102C12.5697 3.85237 12.5922 3.15158 11.9629 3.21667C11.3612 3.25804 11.2331 3.83072 10.4951 3.94239C9.38616 4.27316 9.06018 5.26128 9.7797 6.11614C10.3445 6.96901 10.4808 6.98241 10.1241 8.52362C9.9991 9.06826 9.85147 9.518 9.69467 9.89014C9.36563 10.4576 8.90644 11.0406 8.63592 11.3135C7.48534 12.3492 7.07434 13.8553 6.72328 15.3448L4.72867 14.8166C4.6261 14.7897 4.52061 14.8517 4.4939 14.9551C3.70981 17.9745 2.99234 20.9174 2.10568 23.8612C1.62086 23.8943 1.13713 23.9429 0.655365 24.0059C2.2718 29.993 6.72015 34.8037 12.46 36.8845C13.6532 36.8927 14.8483 36.8059 15.986 36.6301C15.9009 36.994 15.8097 37.3641 15.7124 37.7394C16.7281 37.9109 17.7705 37.9998 18.8344 37.9998C19.3633 37.0726 19.843 36.1713 20.1946 35.3236C20.4272 35.2379 20.6342 35.1935 20.7809 35.2389C20.9162 35.2807 23.1384 37.0703 23.5842 37.39C24.7474 37.0861 25.8678 36.6725 26.9318 36.1599C26.287 35.2616 25.6054 34.3623 24.8879 33.4413C27.3489 31.834 26.5165 27.8967 26.7902 24.2685C26.7913 24.2592 26.7913 24.2499 26.7934 24.2406L31.7202 24.7299L32.1978 24.8209C32.751 26.1628 32.8366 26.3493 33.8341 26.2185C35.2226 26.0366 35.3915 24.8456 35.4014 23.5432C35.4282 20.0495 32.918 15.2637 34.8607 13.1779L34.8607 13.178ZM15.3422 23.7744C15.3022 23.7113 15.2674 23.6494 15.2325 23.5853L14.6278 22.718L15.8259 22.8886L16.5066 23.0095C16.1724 23.2938 15.7911 23.5523 15.3421 23.7744H15.3422ZM26.9203 23.484C27.2524 22.1236 28.0795 20.7551 28.3584 20.3158C29.2194 21.3422 30.7719 22.7607 31.476 24.1242C30.1046 24.12 28.2754 23.8715 26.9203 23.484Z" fill="#12374A"/>
<path fill-rule="evenodd" clip-rule="evenodd" d="M13.5667 6.30954C14.2383 6.11759 14.1751 4.91155 14.022 4.66263C13.8955 4.21812 13.0844 4.06816 12.4555 4.46951L12.4577 5.65501C12.8904 5.71294 13.566 5.70909 13.5667 6.30954Z" fill="#FEFEFE"/>
<path fill-rule="evenodd" clip-rule="evenodd" d="M12.2391 4.46704C11.5935 4.18905 10.57 3.95738 10.039 4.60126C9.51732 5.26033 10.1061 6.24728 10.5633 6.44438C11.2126 5.657 10.7626 5.65412 12.2412 5.6524L12.2399 4.52023L12.239 4.46697L12.2391 4.46704Z" fill="#FEFEFE"/>
<path fill-rule="evenodd" clip-rule="evenodd" d="M13.4 30.7195L14.1047 31.2058C14.4103 31.4167 14.4568 31.3823 14.2041 31.7353C14.0771 31.9124 13.9121 32.0948 13.7943 32.2532C13.4026 32.7799 13.076 33.4384 12.8802 34.0969C12.7782 34.4055 12.6364 34.5937 12.517 34.8178C12.4746 34.8977 12.4319 35.0975 12.2674 34.9412C12.2381 34.9133 12.2207 34.8446 12.1625 34.722C12.0541 34.4939 11.8953 34.3799 11.5989 34.4675C11.3559 34.5396 11.378 34.5269 11.3787 34.2879C11.3791 34.2001 11.3942 34.1153 11.4084 34.0329C11.477 33.6348 11.6396 33.3011 11.7966 33.0612C12.1939 32.4539 12.136 32.7267 12.4021 31.9217L12.4884 31.6604C12.5901 31.4554 12.7678 31.0135 12.9473 30.7455C13.1407 30.4562 13.1485 30.5459 13.4 30.7195V30.7195Z" fill="#FEFEFE"/>
<path fill-rule="evenodd" clip-rule="evenodd" d="M14.4158 30.8814C14.1773 30.7642 13.88 30.5905 13.6938 30.4651C13.4076 30.2726 13.3663 30.3034 13.5651 29.9233C13.6082 29.8409 13.6573 29.7547 13.7036 29.6723C13.9221 29.2819 13.8036 29.3009 14.3139 29.4808C14.5513 29.5644 14.836 29.6802 15.0689 29.7969C15.5901 30.0582 15.5723 30.0754 15.1862 30.5087C15.1258 30.5763 15.062 30.6442 14.9998 30.7086C14.7119 31.0064 14.7752 31.0582 14.4158 30.8815V30.8814Z" fill="#22A0B5"/>
<path fill-rule="evenodd" clip-rule="evenodd" d="M13.3976 34.5857C13.7019 34.78 14.3805 35.132 14.3874 35.3433C14.394 35.5547 13.4245 35.583 13.1811 35.4816C12.9378 35.3804 12.8836 35.1604 12.8836 35.1604L13.3976 34.5858V34.5857Z" fill="#FEFEFE"/>
<path fill-rule="evenodd" clip-rule="evenodd" d="M13.8274 22.574L13.2691 24.7789C12.9998 25.7922 13.0842 25.531 12.7925 26.6291C12.7925 26.6987 13.6916 27.7097 13.8658 28.0614C14.127 28.5881 13.7291 28.6314 14.2514 28.9607C15.8185 29.9483 15.8185 29.8826 16.3409 29.0924C17.3855 27.7754 16.7979 27.6438 15.8838 25.9317C15.3614 24.9439 14.8037 23.5352 14.0201 22.7451C13.9484 22.6874 13.8845 22.6303 13.8274 22.574V22.574Z" fill="#22A0B5"/>
<path fill-rule="evenodd" clip-rule="evenodd" d="M9.82469 16.2292L13.9304 17.2495C14.2213 15.5995 14.8001 13.6947 13.9923 12.0926C13.7043 11.5217 13.3115 11.0525 13.1664 11.0161C13.1512 12.8675 12.7641 14.8791 12.6527 16.7999C12.6501 16.8441 12.2554 16.7082 12.2219 16.7308C12.7656 13.9285 11.7719 12.9156 10.2366 10.7034C8.61274 11.8556 8.02746 12.1269 7.49853 14.2283C7.29544 15.0349 7.29795 15.0121 8.09638 15.2199C8.84247 15.4141 9.73062 15.606 9.82469 16.2292Z" fill="#22A0B5"/>
<path d="M14.6716 17.8451L9.68064 16.5928C9.34616 16.9714 9.11004 18.8884 9.0159 20.8922C8.91843 22.9661 8.98314 25.1082 9.25488 25.7424C9.2718 25.7836 9.28893 25.8141 9.30511 25.8328C9.88074 26.4959 9.64801 26.8321 9.4628 27.0815L12.0925 27.7805L14.6716 17.845V17.8451Z" fill="#C4C4C4"/>
<path d="M6.55105 15.7003L4.81724 15.241L2.24741 25.1403L7.26588 26.705C7.28002 26.6201 7.36314 26.3607 7.38292 26.2696C7.44165 25.9991 7.50975 25.6864 7.46537 25.3445C7.44872 25.2152 7.4704 24.9976 7.39434 24.8352C7.27064 24.5716 7.13443 24.2812 7.13015 23.9162C7.12294 23.3107 6.91904 22.6911 6.80743 22.0016C6.39486 19.4556 6.60529 19.0023 6.92298 16.7765C6.94058 16.6528 6.94996 16.5647 6.93963 16.5632C6.5011 16.4995 6.47194 16.2075 6.51693 15.8933C6.52454 15.8389 6.53488 15.7853 6.54494 15.7328L6.55105 15.7004V15.7003Z" fill="#C4C4C4"/>
<path fill-rule="evenodd" clip-rule="evenodd" d="M7.30072 16.8538C7.09335 18.1937 6.85151 19.339 7.00927 20.7251C7.12346 21.7291 7.48355 24.6497 7.98313 25.4049H8.76701C8.58614 24.4391 8.54958 22.6259 8.63182 20.8739C8.6934 19.5621 8.82546 18.2753 9.01781 17.3872C8.44878 17.0451 7.91108 17.0074 7.30072 16.8538V16.8538Z" fill="#F8DEAA"/>
<path fill-rule="evenodd" clip-rule="evenodd" d="M7.40717 16.2445C7.75674 16.3349 8.0993 16.4751 8.4231 16.5895C8.58004 16.6449 8.73263 16.6942 8.87945 16.7288C9.31818 16.8319 9.58693 16.3332 8.94497 16.0766C8.83826 16.0339 8.7293 15.9866 8.61926 15.9384C8.24774 15.7753 7.86399 15.6002 7.51239 15.5465C6.99059 15.4666 6.84922 16.1005 7.40717 16.2446V16.2445Z" fill="#22A0B5"/>
<path fill-rule="evenodd" clip-rule="evenodd" d="M28.4764 19.7823C25.5061 22.4676 26.4007 25.8989 26.1691 29.388C26.0201 31.6321 25.3704 32.7724 24.305 33.3956C23.9094 33.7988 24.5336 34.3228 25.2357 35.2035C25.6109 35.6749 26.0362 36.1979 26.439 36.691C25.7994 36.9701 25.1404 37.215 24.4659 37.4218C23.8231 36.9142 22.7989 35.9776 22.2047 35.5632C19.8596 33.7274 20.7431 35.4619 17.783 35.895C16.6873 36.079 15.3528 35.9126 14.3647 34.606C14.5984 34.4488 15.3322 34.1687 15.6511 33.651C16.0908 32.9366 16.0806 32.948 16.345 32.0704C16.4444 31.7397 16.3706 31.3778 16.5213 31.1153C16.7478 30.7214 17.2234 30.4414 17.496 29.939C18.6265 27.8562 17.0004 24.7255 16.7554 23.9419C18.0595 23.0543 19.2994 21.3136 19.2777 20.7905C19.276 20.7505 19.861 20.6974 19.6814 22.0089C21.0738 20.4375 21.043 18.9038 21.2822 18.0868C21.2225 18.5544 22.2003 18.8772 22.03 19.9392C23.2189 18.7557 22.9068 17.4412 23.7257 16.1201C23.9332 17.5157 24.0989 17.4722 24.0724 18.0188C25.0594 16.8589 25.6082 16.3065 25.5315 15.0659C26.3092 16.1458 26.3274 17.3948 26.2157 17.6187C26.6235 17.4299 27.9376 15.6267 28.0365 14.0763C28.3924 15.2752 28.1234 16.3236 28.0804 16.3236C28.7414 16.0553 29.183 15.6699 30.5056 13.9656C29.9091 18.1748 27.5804 18.3527 28.4764 19.7822L28.4764 19.7823Z" fill="#F8DEAA"/>
<path fill-rule="evenodd" clip-rule="evenodd" d="M31.2868 14.9909C31.4739 13.6828 32.662 13.6973 33.837 13.6208C33.6382 13.8149 32.9062 14.1713 32.4381 14.5894C31.8294 15.1332 32.1341 15.4741 32.4267 15.2252C32.7547 14.9467 33.2176 15.3357 32.5922 15.6912C32.0429 16.0034 31.1822 15.7237 31.2868 14.9909Z" fill="#F8DEAA"/>
<path fill-rule="evenodd" clip-rule="evenodd" d="M33.7903 24.2114C33.8406 24.0213 33.9815 23.8917 34.1922 23.86C34.6364 23.7711 34.6722 23.9712 34.6913 24.3035C34.7062 24.5646 34.7605 24.6581 34.4999 24.4314C34.4269 24.3676 34.4198 24.3359 34.404 24.301C34.3176 24.111 34.1874 24.1843 34.1839 24.3625C34.1814 24.4929 34.2236 24.6249 34.2604 24.7571C34.3894 25.0003 34.5474 24.896 34.6353 24.8044C34.7109 24.7255 34.7697 24.7115 34.8061 24.8097C35.0458 25.4578 34.6943 25.6639 34.0037 24.8951C33.7016 24.5967 33.6992 24.5565 33.7903 24.2114V24.2114Z" fill="#F8DEAA"/>
<path fill-rule="evenodd" clip-rule="evenodd" d="M33.1172 25.5987C32.8228 25.2966 32.8898 24.8419 33.0997 24.5C33.2285 24.2902 33.4879 24.0894 33.483 24.5153C33.4809 24.7082 33.4816 24.932 33.4659 25.1397C33.4539 25.2955 33.4326 25.4424 33.394 25.5607C33.3212 25.7833 33.2767 25.7624 33.1172 25.5988V25.5987Z" fill="#F8DEAA"/>
<path fill-rule="evenodd" clip-rule="evenodd" d="M30.9771 17.9514C30.0123 17.2793 30.0154 16.5051 30.9033 16.6322C31.0066 16.1589 31.2496 16.0313 31.5228 16.1267C32.2537 16.3814 32.0624 17.0984 31.8144 17.6762C31.6466 18.0667 31.3769 18.3118 30.9771 17.9515L30.9771 17.9514Z" fill="#F8DEAA"/>
<path fill-rule="evenodd" clip-rule="evenodd" d="M33.5904 22.3095C33.13 21.3129 32.3206 19.417 32.1343 18.5859C32.027 18.1077 32.157 18.2897 32.3456 17.919C32.3888 17.8341 32.4258 17.7396 32.4561 17.6397C32.5986 17.1692 32.5598 17.2943 33.1513 17.2519C33.4168 17.2329 33.6592 17.2466 33.9828 17.4094C34.2668 18.0879 34.0928 18.8248 34.001 19.537C33.8871 20.4206 34.0337 20.7834 34.2412 21.6057C34.3691 22.1115 34.4573 22.6208 34.2222 22.8022C33.8404 23.0971 33.7043 22.5561 33.5904 22.3095Z" fill="#F8DEAA"/>
<path fill-rule="evenodd" clip-rule="evenodd" d="M30.2705 18.062C30.8051 18.4345 30.9697 18.6556 31.1758 19.2769L31.9421 21.2226C32.107 21.6413 32.9881 23.4406 32.8882 23.6229C32.6532 24.051 32.2729 23.6672 32.1084 23.4295C31.72 22.8683 31.189 21.8248 30.7937 21.2945C28.5251 20.9695 29.3928 18.486 30.2704 18.062H30.2705Z" fill="#F8DEAA"/>
<path fill-rule="evenodd" clip-rule="evenodd" d="M31.8059 18.6405C31.9282 18.8585 32.0204 19.1261 32.1299 19.4348C32.274 19.8411 32.3919 20.2738 32.5274 20.7033C32.6078 20.9579 33.3469 22.5819 33.589 23.2255C33.6591 23.4115 33.4284 23.5557 33.3194 23.3679C32.8953 22.6355 32.4318 21.6113 32.1417 20.8046C31.9416 20.2472 31.7684 19.6225 31.5441 19.1427C31.4927 19.0327 31.4497 18.9619 31.4178 18.9112C31.2504 18.6455 31.6341 18.3337 31.8059 18.6405L31.8059 18.6405Z" fill="#F8DEAA"/>
<path d="M33.5892 19.2074C33.6387 19.0923 33.6821 18.6423 33.4076 18.3134C33.0754 17.915 32.6067 18.0186 32.6284 18.6423C32.6344 18.8195 32.6853 19.0007 32.7722 19.16C33.0044 19.5858 33.3266 19.6559 33.5892 19.2074V19.2074Z" fill="#12374A"/>
<path fill-rule="evenodd" clip-rule="evenodd" d="M12.5173 36.5096C12.1719 36.5209 11.8347 36.5209 11.5077 36.5106C8.45029 35.2071 5.80481 33.1139 3.82346 30.4842C4.07358 30.3509 4.34926 30.2641 4.68958 30.2444C5.08931 30.2216 5.10467 30.233 5.43262 30.4211C5.77498 30.6155 6.1225 30.7457 6.47098 30.7633C7.14339 30.7974 6.89021 30.4842 7.10336 31.2946C7.3668 32.2953 7.93781 33.608 8.51072 34.0907C9.28767 34.745 9.90775 34.686 10.7175 34.8132C10.8703 35.5874 11.8501 35.7818 12.1074 35.7548L12.5173 36.5094V36.5096Z" fill="#F8DEAA"/>
<path fill-rule="evenodd" clip-rule="evenodd" d="M8.88326 25.7273C8.32075 25.8337 8.49821 25.5893 7.84897 25.9292C7.79052 26.2293 7.74301 26.4255 7.68197 26.6219C7.5026 27.2 7.36721 27.0667 7.80853 27.4656C8.40876 27.9263 8.38729 28.0947 8.72625 27.4499L8.98195 27.1008C9.26184 26.5949 9.30935 26.556 8.97175 26.0843L8.88326 25.7273Z" fill="#F8DEAA"/>
<path d="M26.5145 23.3674C26.6508 23.4066 26.7861 23.4459 26.9203 23.4842C26.8578 23.7384 26.8127 23.9927 26.7932 24.2408L26.3422 24.1788C24.4286 24.1334 21.7944 23.7891 19.8623 23.5318L18.1434 23.3023L16.5066 23.0097C16.7044 22.8423 16.8858 22.6656 17.0539 22.4836L17.1001 22.493L19.9833 23.0408C22.2619 23.3746 24.2042 23.3954 26.5145 23.3675V23.3674Z" fill="#12374A"/>
<path fill-rule="evenodd" clip-rule="evenodd" d="M12.4969 8.25795C12.5532 8.25795 12.5882 8.28276 12.6353 8.291C12.6988 8.2796 12.7603 8.23719 12.8607 8.26826C12.9971 8.30963 13.1384 8.3954 13.2492 8.47292C13.2697 8.28063 13.2707 8.05741 13.2645 7.84443C13.2492 7.26241 13.2441 7.03919 13.243 6.97205C13.2328 6.99988 13.2205 7.02778 13.1754 7.05782C13.1324 7.08056 12.8946 7.13431 12.8228 6.92037C12.8002 6.92655 12.7777 6.93377 12.7541 6.94202L12.7285 6.86869C12.9448 6.79007 13.1437 6.81804 13.241 6.84079C13.2441 6.7777 13.2769 6.67949 12.954 6.67949C12.6188 6.71255 12.6455 6.95033 12.7183 7.23664C12.7501 7.36275 12.7706 7.45992 12.7828 7.55916C12.831 7.95302 12.8721 8.01302 12.4876 8.05329C12.2478 8.077 12.1063 7.93034 12.4128 7.92821C12.7511 7.92718 12.6988 7.92924 12.6404 7.58919C12.6219 7.48274 12.5994 7.37415 12.5779 7.26358C12.5461 7.09823 12.5266 6.93693 12.5512 6.81288C12.6066 6.47696 13.0166 6.54933 13.1898 6.40975C13.2206 6.38494 13.2789 6.33532 13.1959 6.22474C12.8495 5.7089 12.4344 6.12344 12.3698 6.18962L12.2601 5.98805C11.9342 5.98902 11.5426 5.92284 11.4114 6.05527C11.3786 6.08832 11.1603 6.44184 11.2557 6.40975C11.5273 6.31773 11.9946 6.21649 12.3965 6.57929C12.1464 6.92971 12.0583 6.33532 11.2167 6.71365C11.1522 7.50446 11.022 8.03054 11.023 8.82135C11.0241 9.80844 10.5857 10.5254 10.5857 10.5254C10.9103 11.0512 12.3327 13.3073 12.5549 13.639C12.6035 13.2708 13.0355 10.386 12.9171 9.67511C12.3626 9.73813 11.5908 9.4921 11.1972 8.89365C11.4545 9.10243 11.7415 9.34737 12.3298 9.41259C12.7183 9.46736 13.0134 9.1893 13.1723 8.82135C13.197 8.76342 13.2154 8.69421 13.2298 8.61559C13.1006 8.59903 12.9489 8.57216 12.8608 8.53291C12.8085 8.50914 12.6999 8.45436 12.6456 8.44192C12.5923 8.4523 12.4806 8.51017 12.4272 8.53395C12.2541 8.61257 11.8276 8.63944 11.8276 8.63944C11.8276 8.63944 12.1392 8.35719 12.4272 8.26943C12.4539 8.26118 12.4764 8.25802 12.4969 8.25802L12.4969 8.25795ZM12.2099 6.88937L12.2058 6.88834L12.2089 6.8915C12.1822 6.93597 12.1874 6.9794 12.0982 7.02792C12.0377 7.05273 11.7036 7.11376 11.6113 6.8636C11.556 6.87288 11.5007 6.88738 11.4463 6.90704L11.4196 6.83371C11.7927 6.69928 12.2273 6.81405 12.2284 6.81405L12.21 6.88951L12.2099 6.88937Z" fill="#F8DEAA"/>
<path fill-rule="evenodd" clip-rule="evenodd" d="M12.9827 8.71451C12.7666 8.91649 12.3427 8.84891 12.2386 8.71616C12.5368 8.65951 12.682 8.60162 12.9827 8.71451Z" fill="#12374A"/>
<path d="M43.0609 31.0189V24.7288H45.9785C47.3344 24.7288 48.0731 25.653 48.0731 26.7564C48.0731 27.8503 47.325 28.7839 45.9785 28.7839H44.3888V31.019H43.0609L43.0609 31.0189ZM69.1152 31.0189L68.7317 29.9532H66.0573L65.6645 31.0189H64.1497L66.5622 24.7288H68.2267L70.63 31.0189H69.1152ZM67.3945 26.0679L66.4219 28.7745H68.3671L67.3945 26.0679ZM58.4824 31.0189V29.9344L61.428 25.9076H58.4824V24.7288H63.1673V25.8039L60.2216 29.8402H63.2327V31.0189H58.4823H58.4824ZM52.3756 31.0189V29.9344L55.3212 25.9076H52.3756V24.7288H57.0604V25.8039L54.1149 29.8402H57.1259V31.0189H52.3755H52.3756ZM49.4671 31.0189V24.7288H50.795V31.0189H49.4671ZM46.7172 26.7563C46.7172 26.2281 46.3244 25.9076 45.8006 25.9076H44.3888V27.605H45.8006C46.3244 27.605 46.7172 27.275 46.7172 26.7563Z" fill="white"/>
<path fill-rule="evenodd" clip-rule="evenodd" d="M64.4096 19.776H67.3548V6.2516H64.4096V11.8122H59.4275V6.2516H56.4824V19.776H59.4275V14.1527H64.4096V19.776ZM53.0966 16.5962L53.029 16.6403C52.7295 16.8494 52.3319 17.0094 51.9867 17.1209C51.5206 17.2716 51.0247 17.3719 50.536 17.4039C50.4291 17.4109 50.322 17.4146 50.2149 17.4146C49.0402 17.4146 48.0127 17.0328 47.1785 16.1915C46.314 15.3199 45.9657 14.2186 45.9657 13.0034C45.9657 11.8023 46.3066 10.7004 47.1323 9.82012C47.9417 8.95725 48.985 8.59237 50.1525 8.59237C50.7347 8.59237 51.3039 8.6831 51.8531 8.87865C52.0809 8.95973 52.3098 9.04286 52.5329 9.13623C52.6678 9.19279 52.8284 9.26191 52.9482 9.34742L53.026 9.39971L53.5308 6.69687L53.2944 6.58402L53.2906 6.58197C53.1374 6.50166 52.9598 6.43955 52.7953 6.38761C52.5516 6.31063 52.3013 6.24878 52.0511 6.19718C51.4389 6.07082 50.7983 6 50.1733 6C48.2111 6 46.4732 6.61896 45.05 7.99109C43.6289 9.36101 43 11.0497 43 13.0246C43 15.0078 43.5108 16.8621 45.0034 18.2213C46.4696 19.5563 48.2933 20.049 50.2359 20.049C50.9077 20.049 51.5654 19.9741 52.2164 19.8046C52.4746 19.7374 52.7349 19.6675 52.989 19.5855C53.1154 19.5447 53.2712 19.494 53.3877 19.429L53.6745 19.2637L53.0966 16.5964L53.0966 16.5962ZM101.021 14.456L102.963 9.07882L104.905 14.456H101.021ZM99.0788 19.7761L99.4156 18.9006L100.187 16.7634H105.739L106.511 18.9006L106.848 19.7761H109.981L104.492 6.25168H101.435L95.9457 19.7761H99.0788ZM115.401 8.57127H115.946C116.783 8.57127 117.79 8.72317 118.321 9.45362C118.581 9.81038 118.677 10.2375 118.677 10.6742C118.677 12.3425 117.483 12.8822 115.988 12.8822H115.401V8.57127ZM112.456 19.7761H115.401V14.8033H115.872L118.785 19.7761H122.366L118.955 14.3801L119.504 14.2097C121.018 13.5097 121.677 12.1353 121.684 10.4844C121.693 8.62073 120.609 7.30071 118.905 6.67825C117.96 6.3331 116.84 6.25168 115.843 6.25168H112.456V19.7761H112.456ZM89.5796 8.67627H90.0836C90.7076 8.67627 91.35 8.83688 91.8546 9.21919C92.6292 9.80611 92.8763 10.7433 92.8763 11.6816C92.8763 12.6337 92.5617 13.5462 91.7275 14.0666C91.291 14.3389 90.7808 14.456 90.2708 14.456H89.5796V8.67627ZM86.6344 19.7761H89.5796V16.7756H90.3333C91.6183 16.7756 92.9726 16.4406 94.0034 15.6391C95.3453 14.5956 95.8214 13.025 95.8214 11.3669C95.8214 9.13538 94.7138 7.31609 92.5891 6.59632C91.7741 6.3202 90.7921 6.25177 89.9378 6.25177H86.6344V19.7762V19.7761ZM74.2444 16.3082C73.4178 15.3801 73.0774 14.2408 73.0774 13.0034C73.0774 11.7831 73.4247 10.6495 74.2454 9.73947C75.0376 8.86106 76.0379 8.42449 77.2152 8.42449C78.3992 8.42449 79.3957 8.86567 80.2026 9.73717C81.0407 10.6426 81.3922 11.7753 81.3922 13.0034C81.3922 14.2586 81.0549 15.4 80.2037 16.3315C79.399 17.2121 78.4002 17.6244 77.2153 17.6244C76.0386 17.6244 75.0321 17.1926 74.2444 16.3082ZM72.3095 7.98836C70.9244 9.36793 70.3396 11.0736 70.3396 13.0246C70.3396 14.9758 70.8982 16.7504 72.3076 18.1217C73.676 19.4532 75.3407 20.049 77.2348 20.049C79.1278 20.049 80.7772 19.4395 82.1419 18.1013C83.5511 16.7194 84.1301 14.9915 84.1301 13.0246C84.1301 11.0653 83.5361 9.36853 82.1412 7.98904C80.7809 6.64382 79.1383 6 77.2348 6C75.3238 6 73.6721 6.63135 72.3095 7.98836Z" fill="white"/>
</svg>
